<svg xmlns="http://www.w3.org/2000/svg" viewBox="0 0 64 64" id="cracker"><path fill="#f76d6d" d="M48.09 51.1V60l-2.92-.87-2.63.78-2.64-.78-2.63.78-2.64-.78-2.63.78-2.63-.78-2.64.78-2.64-.78-2.63.78-2.63-.78-2.92.87v-8.9h32.18z"></path><path fill="#f4bd21" d="M38.14 10.92A8 8 0 0 0 30.58 4c-.58 0-2.51.07-3.31 1.2a1.34 1.34 0 0 0-.28 1 3.8 3.8 0 0 0 .79 1.44 8.92 8.92 0 0 1 1.77 3.9c0 .14.05.29.07.45a12 12 0 0 1-.52 4.89 5.2 5.2 0 0 0-.34 2.22 2.13 2.13 0 0 0 .59 1.1 4.48 4.48 0 0 0 4 .84c3.7-.85 5.4-5.56 4.9-9.63v-.13c0-.13 0-.26-.05-.38Z"></path><path fill="#fecd31" d="M48.46 17.57c2.13-3.63 1.73-8-.93-10.37-.42-.36-1.88-1.53-3.21-1.14a1.45 1.45 0 0 0-.9.67A4.13 4.13 0 0 0 43 8.39a9.81 9.81 0 0 1-1.29 4.25l-.25.41a13 13 0 0 1-3.62 3.59 5.73 5.73 0 0 0-1.72 1.58 2.19 2.19 0 0 0-.3 1.25 4.14 4.14 0 0 0 2.34 3.2c3.26 1.68 7.63-1 10-4.62l.08-.12.21-.34zm-32.11-.4c-2.46-3.42-2.48-7.8-.05-10.41.38-.41 1.72-1.71 3.09-1.44a1.46 1.46 0 0 1 1 .58 4.33 4.33 0 0 1 .53 1.61 9.93 9.93 0 0 0 1.68 4.12c.09.13.19.25.29.38a12.89 12.89 0 0 0 3.94 3.24 5.63 5.63 0 0 1 1.86 1.41 2.29 2.29 0 0 1 .42 1.22 4.17 4.17 0 0 1-2 3.4c-3.1 2-7.69-.31-10.35-3.67l-.09-.11-.24-.31z"></path><path fill="#f20606" d="M17.68 54.54a2.15 2.15 0 0 1-2.06-1.62A69.14 69.14 0 0 1 13 33.58c.1-16.53 1.32-17.37 2.6-18.26a3.77 3.77 0 0 1 2.21-.7A12.16 12.16 0 0 1 22 15.79 25.61 25.61 0 0 0 32 18a25.59 25.59 0 0 0 10-2.24 12.11 12.11 0 0 1 4.21-1.17 3.76 3.76 0 0 1 2.22.71c1.28.88 2.49 1.72 2.59 18.26a69.24 69.24 0 0 1-2.6 19.34 2.14 2.14 0 0 1-2.06 1.61Z"></path><path fill="#f4bd21" d="M41.56 42.81c-3.71 3.71-9.1 4.61-12.81 2.14-.57-.39-2.44-1.78-2.39-3.52a1.88 1.88 0 0 1 .52-1.29 5.24 5.24 0 0 1 1.89-1 12.36 12.36 0 0 0 4.73-2.9c.13-.13.27-.27.4-.42a16 16 0 0 0 3.2-5.51 7.21 7.21 0 0 1 1.36-2.57 2.85 2.85 0 0 1 1.42-.74 5.19 5.19 0 0 1 4.6 1.82c3.05 3.41 1.16 9.53-2.44 13.47l-.12.13a3.89 3.89 0 0 1-.34.36Z"></path><path fill="#fecd31" d="M27.73 44.8c-5.25 0-9.69-3.17-10.56-7.54-.14-.68-.48-3 .79-4.17a1.79 1.79 0 0 1 1.28-.55 5.27 5.27 0 0 1 2 .64 12.2 12.2 0 0 0 5.39 1.3h.59a16.18 16.18 0 0 0 6.15-1.63 7.11 7.11 0 0 1 2.81-.85 2.91 2.91 0 0 1 1.55.46c1.47.91 2 3 2 4.53-.25 4.58-5.92 7.56-11.25 7.81h-.71Z"></path></svg>